<svg aria-hidden="true" style="position:absolute;width:0;height:0" xmlns="http://www.w3.org/2000/svg" overflow="hidden"><defs><symbol id="icon-OK" viewBox="0 0 32 32"><path fill="var(--color1, #95e1d3)" d="M30 25h-9.5v2.5l2 2v.5h-13v-.5l2-2V25H2a1.5 1.5 0 0 1-1.5-1.5v-20A1.5 1.5 0 0 1 2 2h28a1.5 1.5 0 0 1 1.5 1.5v20A1.5 1.5 0 0 1 30 25zm-.5-21h-27v17h27zM13 11c.414 0 .79.168 1.06.439l.94.94 2.94-2.94a1.5 1.5 0 1 1 2.121 2.12l-.001.001-4 4a1.493 1.493 0 0 1-2.122 0l-2-2A1.5 1.5 0 0 1 12.999 11H13z"/></symbol><symbol id="icon-ALARM" viewBox="0 0 32 32"><path fill="var(--color1, #95e1d3)" d="M30.74 10.003c-1.623-3.716-4.527-6.62-8.142-8.204l-.101-.039c1-.787 2.258-1.26 3.629-1.26A5.874 5.874 0 0 1 32 6.374v.003a5.822 5.822 0 0 1-1.269 3.637l.009-.012zM30.5 16.5c0 3.852-1.512 7.343-3.963 9.94l2.029 2.028a1.483 1.483 0 0 1-2.098 2.096l-2.18-2.178a14.299 14.299 0 0 1-8.278 2.613h-.012.001-.012a14.35 14.35 0 0 1-8.309-2.633l.045.03-2.163 2.163a1.498 1.498 0 0 1-2.59-1.03c0-.429.18-.816.468-1.089l.001-.001 2.011-2.012c-2.443-2.596-3.951-6.083-3.951-9.928 0-8.008 6.492-14.5 14.5-14.5s14.5 6.492 14.5 14.5zM16 5C9.649 5 4.5 10.148 4.5 16.5 4.5 22.851 9.649 28 16 28s11.5-5.15 11.5-11.5C27.5 10.148 22.35 5 16 5zm6 13h-6a1.5 1.5 0 0 1-1.5-1.5v-8a1.5 1.5 0 0 1 3 0V15H22a1.5 1.5 0 0 1 0 3zM1.287 10.205A5.93 5.93 0 0 1 0 6.503V6.5a6 6 0 0 1 6-6c1.4 0 2.685.483 3.706 1.287-3.795 1.658-6.761 4.624-8.379 8.315l-.04.103z"/></symbol><symbol id="icon-BOOK_2" viewBox="0 0 32 32"><path fill="var(--color1, #95e1d3)" d="M31.065 25.89l-14.471 5.987a1.485 1.485 0 0 1-1.198-.004l.01.004L.936 25.89A1.503 1.503 0 0 1 0 24.5v-23A1.5 1.5 0 0 1 2.083.118l-.01-.004.003.001.013.005L16 5.875 29.928.113A1.5 1.5 0 0 1 32 1.499v23c0 .625-.382 1.16-.925 1.386l-.01.004zM14.5 8.502L3 3.743v19.754l11.5 4.759zM29 3.743l-11.5 4.76v19.753l11.5-4.76zm-9.12 6.891l5.5-2.5a1.5 1.5 0 0 1 1.251 2.727l-.009.004-5.5 2.5a1.5 1.5 0 0 1-1.251-2.727l.009-.004zm0 5.5l5.5-2.5a1.499 1.499 0 0 1 2.12 1.364v.001a1.5 1.5 0 0 1-.871 1.362l-.009.004-5.5 2.5a1.5 1.5 0 0 1-1.249-2.726l.009-.004zm0 5.5l5.5-2.5a1.5 1.5 0 0 1 1.251 2.727l-.009.004-5.5 2.5a1.5 1.5 0 0 1-1.251-2.727l.009-.004zM6 8c.221 0 .431.048.62.134l5.5 2.5a1.5 1.5 0 1 1-1.25 2.727l.01.004-5.5-2.5A1.5 1.5 0 0 1 6 8zm0 5.5c.221 0 .431.048.62.134l5.5 2.5a1.5 1.5 0 1 1-1.249 2.726l.009.004v.001l-5.5-2.5A1.5 1.5 0 0 1 6 13.5zM6 19c.221 0 .431.048.62.134l5.5 2.5a1.5 1.5 0 1 1-1.25 2.727l.01.004-5.5-2.5A1.5 1.5 0 0 1 6 19z"/></symbol><symbol id="icon-facebook" viewBox="0 0 32 32"><path fill="var(--color2, #f38181)" d="M23.495.245v5.071s-3.739-.372-4.676 1.061c-.512.783-.208 3.077-.254 4.724h4.96c-.42 1.925-.72 3.23-1.029 4.896h-3.958v15.759h-6.871V16.059H8.745v-4.956h2.891c.148-3.626.203-7.217 2.005-9.046C15.664 0 17.595.247 23.493.247z"/></symbol><symbol id="icon-HOME" viewBox="0 0 32 32"><path fill="var(--color1, #95e1d3)" d="M32 17a1.5 1.5 0 0 1-1.5 1.5 1.488 1.488 0 0 1-1.021-.407l.001.001-.003.004L16 4.622 2.554 18.068a1.5 1.5 0 1 1-2.093-2.15l.001-.001L14.918 1.459c.273-.283.656-.46 1.08-.46H16c.027 0 .053 0 .08.002h.012c.032.002.057.005.081.008l-.009-.001c.367.04.694.212.933.468L23 7.376V5.999a1.5 1.5 0 0 1 3 0v4.378l5.598 5.598-.004.004c.25.268.406.625.406 1.02zm-3 2.5V30a1.5 1.5 0 0 1-1.5 1.5h-3v-12h-6v12h-14A1.5 1.5 0 0 1 3 30V19.5l13-13zm-15.5 0h-6v6h6z"/></symbol><symbol id="icon-IMAGE" viewBox="0 0 32 32"><path fill="var(--color1, #95e1d3)" d="M30.5 32h-29A1.5 1.5 0 0 1 0 30.5v-29A1.5 1.5 0 0 1 1.5 0h29A1.5 1.5 0 0 1 32 1.5v29a1.5 1.5 0 0 1-1.5 1.5zM29 3H3v26h26zM12 4.5a1.5 1.5 0 0 1 0 3H7.5V12a1.5 1.5 0 0 1-3 0V4.5zM4.5 20a1.5 1.5 0 0 1 3 0v4.5H12a1.5 1.5 0 0 1 0 3H4.5zM20 4.5h7.5V12a1.5 1.5 0 0 1-3 0V7.5H20a1.5 1.5 0 0 1 0-3zm0 20h4.5V20a1.5 1.5 0 0 1 3 0v7.5H20a1.5 1.5 0 0 1 0-3z"/></symbol><symbol id="icon-instagram" viewBox="0 0 32 32"><path fill="var(--color3, #f38181)" d="M27.938 31.754H4.307a3.938 3.938 0 0 1-3.938-3.938V4.185A3.938 3.938 0 0 1 4.307.247h23.631a3.938 3.938 0 0 1 3.938 3.938v23.631a3.938 3.938 0 0 1-3.938 3.938zM16.123 9.895a6.1 6.1 0 0 0-5.52 3.507l-.016.037h-.006l-.027.066c-.042.09-.095.22-.144.353l-.014.042a4.076 4.076 0 0 0-.178.568l-.009.042c-.017.066-.037.13-.052.197a5.358 5.358 0 0 0-.072.422l-.003.031c-.009.062-.021.122-.028.185a6.105 6.105 0 1 0 12.135-.028l.003.028c-.006-.063-.018-.123-.027-.185a6.094 6.094 0 0 0-.082-.493l.007.04c-.015-.066-.034-.13-.052-.197a5.727 5.727 0 0 0-.129-.462l.012.044c-.021-.064-.047-.127-.07-.192a5.766 5.766 0 0 0-.173-.432l.015.038-.027-.069h-.006c-.99-2.108-3.096-3.542-5.536-3.543zm12.209-4.529c0-.87-.705-1.575-1.575-1.575h-3.151c-.87 0-1.575.705-1.575 1.575v3.151c0 .87.705 1.575 1.575 1.575h3.151c.87 0 1.575-.705 1.575-1.575zm0 8.074h-2.905c.22.768.346 1.649.346 2.56a9.649 9.649 0 0 1-9.649 9.649h-.001-.001A9.649 9.649 0 0 1 6.473 16c0-.911.126-1.793.362-2.628l-.016.068H3.914v13.194c0 .87.705 1.575 1.575 1.575h21.268c.87 0 1.575-.705 1.575-1.575z"/></symbol><symbol id="icon-LINE_GRAPH" viewBox="0 0 32 32"><path fill="var(--color1, #95e1d3)" d="M30.5 32h-29A1.5 1.5 0 0 1 0 30.5v-29A1.5 1.5 0 0 1 1.5 0h29A1.5 1.5 0 0 1 32 1.5v29a1.5 1.5 0 0 1-1.5 1.5zM29 3H3v26h26zM5.215 16.238l4-2.5c.223-.14.494-.223.785-.223.314 0 .605.097.845.263l-.005-.003.006-.008 6.63 4.42 7.639-5.391a1.5 1.5 0 0 1 1.767 2.424l-.004.003-8.5 6a1.487 1.487 0 0 1-1.744.009l.005.003-6.657-4.438-3.135 1.96a1.5 1.5 0 0 1-1.635-2.513l.005-.003z"/></symbol><symbol id="icon-MAGNIFYING_GLASS" viewBox="0 0 32 32"><path fill="var(--color2, #fff)" d="M31.644 28.711a2.933 2.933 0 0 1-5.008 2.073l-8.597-8.596a11.663 11.663 0 0 1-5.95 1.634c-6.48 0-11.733-5.253-11.733-11.733S5.609.356 12.089.356s11.733 5.253 11.733 11.733c0 2.196-.608 4.249-1.663 6.003l.029-.053 8.597 8.597c.53.53.859 1.262.859 2.075zM12.089 3.289a8.8 8.8 0 0 0 0 17.6 8.8 8.8 0 0 0 0-17.6z"/></symbol><symbol id="icon-pinterest" viewBox="0 0 32 32"><path fill="var(--color3, #f38181)" d="M13.6 20.743c-.256 1.025-.516 2.1-.784 3.151-.265 1.036-.498 2.087-.884 3.04-.639 1.577-1.45 3.102-2.514 4.334-.708.821-.558.492-.77.449-.162-.034-.176-.193-.209-.425-.172-1.253-.054-2.702.01-4.111.074-1.604.411-2.938.725-4.271.596-2.54 1.164-5.03 1.766-7.586.039-.17.148-.45.111-.548-.273-.71-.45-1.348-.528-2.092a6.67 6.67 0 0 1 .182-2.439l-.011.046c.34-1.302 1.122-2.455 2.33-2.878.768-.266 1.618-.145 2.135.162.532.319.897.821 1.067 1.534.182.757.048 1.662-.098 2.327-.329 1.5-.761 2.626-1.153 4.074-.194.718-.415 1.455-.234 2.23a2.605 2.605 0 0 0 1.044 1.569c.524.382 1.145.591 2 .56 1.511-.053 2.561-1.019 3.263-1.93 1.124-1.458 1.803-3.426 2.062-5.767.084-.756.144-1.623.086-2.479-.108-1.58-.603-2.852-1.387-3.836-.746-.939-1.804-1.686-3.092-2.105-1.276-.418-3.042-.556-4.612-.288-2.853.489-4.864 2.11-6.049 4.348a8.6 8.6 0 0 0-1.031 4.11v.091-.005c0 1.292.32 2.295.834 3.077.164.247.404.452.564.735.228.401-.034.998-.148 1.433-.135.523-.148 1.246-.759 1.258-.254.005-.571-.18-.785-.299-1.606-.887-2.581-2.502-2.981-4.596-.116-.599-.182-1.288-.182-1.993s.066-1.393.193-2.061l-.011.069a11.36 11.36 0 0 1 1.153-3.177 11.461 11.461 0 0 1 4.204-4.356l.053-.029c1.374-.812 2.923-1.382 4.809-1.657.568-.08 1.25-.138 1.942-.162l.034-.001a11.833 11.833 0 0 1 5.4 1.027l-.075-.03c1.44.644 2.66 1.536 3.66 2.633l.008.009c1.031 1.126 1.782 2.437 2.257 4.073.249.852.49 1.762.49 2.815 0 1.056-.223 1.985-.379 2.914-.583 3.481-2.239 6.327-4.724 7.948a8.055 8.055 0 0 1-2.101.981l-.058.015c-.821.239-1.758.418-2.761.348a5.649 5.649 0 0 1-2.469-.725l.028.015c-.665-.375-1.223-.836-1.62-1.531z"/></symbol><symbol id="icon-SHOPPING_CART" viewBox="0 0 32 32"><path d="M31.513 9.179h.002l-4.4 9.778a1.47 1.47 0 0 1-1.235.862h-.005l-12.672.844.732 2.091h13.797a2.933 2.933 0 1 1-2.933 2.933H11.11v.002a2.933 2.933 0 1 1-2.933-2.933h2.649L5.183 6.623h-3.36a1.467 1.467 0 0 1 0-2.934h4.398c.64 0 1.179.412 1.38.983h.005l.853 2.439h21.717a1.467 1.467 0 0 1 1.331 2.077l.004-.009zm-22.027.865l2.713 7.746 12.603-.841 3.108-6.905z"/></symbol></defs></svg>