<!-- Generated by IcoMoon.io -->
<svg version="1.1" xmlns="http://www.w3.org/2000/svg" width="32" height="32" viewBox="0 0 32 32">
<title>ALARM</title>
<path fill="#95e1d3" d="M30.74 10.003c-1.623-3.716-4.527-6.62-8.142-8.204l-0.101-0.039c1-0.787 2.258-1.26 3.629-1.26 3.244 0 5.874 2.63 5.874 5.874v0c0 0.001 0 0.002 0 0.003 0 1.375-0.475 2.639-1.269 3.637l0.009-0.012zM30.5 16.5c0 3.852-1.512 7.343-3.963 9.94l2.029 2.028c0.258 0.267 0.417 0.63 0.417 1.031 0 0.819-0.664 1.483-1.483 1.483-0.401 0-0.765-0.159-1.032-0.418l-2.18-2.178c-2.306 1.635-5.178 2.613-8.278 2.613-0.004 0-0.008 0-0.012 0h0.001c-0.004 0-0.008 0-0.012 0-3.094 0-5.961-0.974-8.309-2.633l0.045 0.030-2.163 2.163c-0.274 0.289-0.661 0.47-1.090 0.47-0.828 0-1.5-0.672-1.5-1.5 0-0.429 0.18-0.816 0.468-1.089l0.001-0.001 2.011-2.012c-2.443-2.596-3.951-6.083-3.951-9.928 0-8.008 6.492-14.5 14.5-14.5s14.5 6.492 14.5 14.5zM16 5c-6.351 0-11.5 5.148-11.5 11.5 0 6.351 5.149 11.5 11.5 11.5s11.5-5.15 11.5-11.5c0-6.352-5.15-11.5-11.5-11.5zM22 18h-6c-0.828 0-1.5-0.672-1.5-1.5v0-8c0-0.828 0.672-1.5 1.5-1.5s1.5 0.672 1.5 1.5v0 6.5h4.5c0.828 0 1.5 0.672 1.5 1.5s-0.672 1.5-1.5 1.5v0zM1.287 10.205c-0.802-1.007-1.287-2.298-1.287-3.702 0-0.001 0-0.002 0-0.003v0c0-3.314 2.686-6 6-6v0c1.4 0 2.685 0.483 3.706 1.287-3.795 1.658-6.761 4.624-8.379 8.315l-0.040 0.103z"></path>
</svg>
