<!-- Generated by IcoMoon.io -->
<svg version="1.1" xmlns="http://www.w3.org/2000/svg" width="32" height="32" viewBox="0 0 32 32">
<title>BOOK_2</title>
<path fill="#95e1d3" d="M31.065 25.89l-14.471 5.987c-0.175 0.078-0.379 0.123-0.594 0.123s-0.419-0.045-0.604-0.127l0.010 0.004-14.47-5.987c-0.554-0.229-0.936-0.765-0.936-1.39 0-0 0-0 0-0v0-23c0.001-0.828 0.672-1.499 1.5-1.499 0.207 0 0.404 0.042 0.583 0.117l-0.010-0.004 0.003 0.001 0.013 0.005 13.911 5.755 13.928-5.762c0.169-0.072 0.366-0.113 0.572-0.113 0.828 0 1.5 0.671 1.5 1.499v23c0 0 0 0 0 0 0 0.625-0.382 1.16-0.925 1.386l-0.010 0.004zM14.5 8.502l-11.5-4.759v19.754l11.5 4.759zM29 3.743l-11.5 4.76v19.753l11.5-4.76zM19.88 10.634l5.5-2.5c0.177-0.080 0.385-0.126 0.603-0.126 0.828 0 1.5 0.672 1.5 1.5 0 0.597-0.348 1.112-0.852 1.353l-0.009 0.004-5.5 2.5c-0.177 0.080-0.385 0.126-0.603 0.126-0.828 0-1.5-0.672-1.5-1.5 0-0.597 0.348-1.112 0.852-1.353l0.009-0.004zM19.88 16.134l5.5-2.5c0.182-0.085 0.396-0.135 0.621-0.135 0.828 0 1.499 0.671 1.499 1.499 0 0 0 0 0 0.001v-0c0 0 0 0 0 0 0 0.604-0.357 1.124-0.871 1.362l-0.009 0.004-5.5 2.5c-0.172 0.074-0.372 0.118-0.582 0.118-0.828 0-1.5-0.672-1.5-1.5 0-0.589 0.339-1.098 0.833-1.344l0.009-0.004zM19.88 21.634l5.5-2.5c0.177-0.080 0.385-0.126 0.603-0.126 0.828 0 1.5 0.672 1.5 1.5 0 0.597-0.348 1.112-0.852 1.353l-0.009 0.004-5.5 2.5c-0.177 0.080-0.385 0.126-0.603 0.126-0.828 0-1.5-0.672-1.5-1.5 0-0.597 0.348-1.112 0.852-1.353l0.009-0.004zM6 8c0.221 0 0.431 0.048 0.62 0.134l5.5 2.5c0.508 0.248 0.851 0.76 0.851 1.352 0 0.828-0.672 1.5-1.5 1.5-0.214 0-0.417-0.045-0.601-0.125l0.010 0.004-5.5-2.5c-0.522-0.242-0.878-0.762-0.878-1.365 0-0.828 0.67-1.499 1.498-1.5h0zM6 13.5c0.221 0 0.431 0.048 0.62 0.134l5.5 2.5c0.547 0.232 0.924 0.764 0.924 1.385 0 0.828-0.672 1.5-1.5 1.5-0.242 0-0.471-0.057-0.673-0.159l0.009 0.004v0.001l-5.5-2.5c-0.522-0.242-0.878-0.762-0.878-1.365 0-0.828 0.67-1.499 1.498-1.5h0zM6 19c0.221 0 0.431 0.048 0.62 0.134l5.5 2.5c0.508 0.248 0.851 0.76 0.851 1.352 0 0.828-0.672 1.5-1.5 1.5-0.214 0-0.417-0.045-0.601-0.125l0.010 0.004-5.5-2.5c-0.522-0.242-0.878-0.762-0.878-1.365 0-0.828 0.67-1.499 1.498-1.5h0z"></path>
</svg>
