<!-- Generated by IcoMoon.io -->
<svg version="1.1" xmlns="http://www.w3.org/2000/svg" width="32" height="32" viewBox="0 0 32 32">
<title>LINE_GRAPH</title>
<path fill="#95e1d3" d="M30.5 32h-29c-0.828 0-1.5-0.672-1.5-1.5v0-29c0-0.828 0.672-1.5 1.5-1.5v0h29c0.828 0 1.5 0.672 1.5 1.5v0 29c0 0.828-0.672 1.5-1.5 1.5v0zM29 3h-26v26h26zM5.215 16.238l4-2.5c0.223-0.14 0.494-0.223 0.785-0.223 0.314 0 0.605 0.097 0.845 0.263l-0.005-0.003 0.006-0.008 6.63 4.42 7.639-5.391c0.24-0.17 0.538-0.271 0.86-0.271 0.828 0 1.5 0.672 1.5 1.5 0 0.488-0.233 0.921-0.593 1.195l-0.004 0.003-8.5 6c-0.243 0.179-0.548 0.286-0.878 0.286-0.323 0-0.622-0.103-0.866-0.277l0.005 0.003-6.657-4.438-3.135 1.96c-0.221 0.135-0.488 0.215-0.774 0.215-0.828 0-1.5-0.672-1.5-1.5 0-0.508 0.252-0.957 0.639-1.228l0.005-0.003z"></path>
</svg>
