<!-- Generated by IcoMoon.io -->
<svg version="1.1" xmlns="http://www.w3.org/2000/svg" width="32" height="32" viewBox="0 0 32 32">
<title>MAGNIFYING_GLASS</title>
<path fill="#fff" d="M31.644 28.711c-0 1.62-1.314 2.933-2.933 2.933-0.81 0-1.544-0.329-2.075-0.86l-8.597-8.596c-1.746 1.031-3.776 1.634-5.95 1.634-6.48 0-11.733-5.253-11.733-11.733s5.253-11.733 11.733-11.733c6.48 0 11.733 5.253 11.733 11.733v0c-0 2.196-0.608 4.249-1.663 6.003l0.029-0.053 8.597 8.597c0.53 0.53 0.859 1.262 0.859 2.075zM12.089 3.289c-4.86 0-8.8 3.94-8.8 8.8s3.94 8.8 8.8 8.8v0c4.86 0 8.8-3.94 8.8-8.8s-3.94-8.8-8.8-8.8v0z"></path>
</svg>
