<!-- Generated by IcoMoon.io -->
<svg version="1.1" xmlns="http://www.w3.org/2000/svg" width="32" height="32" viewBox="0 0 32 32">
<title>OK</title>
<path fill="#95e1d3" d="M30 25h-9.5v2.5l2 2v0.5h-13v-0.5l2-2v-2.5h-9.5c-0.828 0-1.5-0.672-1.5-1.5v0-20c0-0.828 0.672-1.5 1.5-1.5v0h28c0.828 0 1.5 0.672 1.5 1.5v0 20c0 0.828-0.672 1.5-1.5 1.5v0zM29.5 4h-27v17h27zM13 11c0.414 0 0.79 0.168 1.060 0.439l0.94 0.94 2.94-2.94c0.274-0.289 0.661-0.469 1.090-0.469 0.828 0 1.5 0.672 1.5 1.5 0 0.429-0.18 0.816-0.469 1.089l-0.001 0.001-4 4c-0.271 0.273-0.646 0.441-1.061 0.441s-0.79-0.169-1.061-0.441l-2-2c-0.271-0.271-0.439-0.646-0.439-1.060 0-0.828 0.672-1.5 1.5-1.5 0 0 0 0 0.001 0h-0z"></path>
</svg>
