<!-- Generated by IcoMoon.io -->
<svg version="1.1" xmlns="http://www.w3.org/2000/svg" width="32" height="32" viewBox="0 0 32 32">
<title>HOME</title>
<path fill="#95e1d3" d="M32 17c0 0.828-0.672 1.5-1.5 1.5v0c-0.395-0.001-0.754-0.155-1.021-0.407l0.001 0.001-0.003 0.004-13.477-13.476-13.446 13.446c-0.271 0.27-0.645 0.436-1.058 0.436-0.828 0-1.5-0.672-1.5-1.5 0-0.427 0.178-0.812 0.465-1.086l0.001-0.001 14.456-14.458c0.273-0.283 0.656-0.46 1.080-0.46h0.002c0.027 0 0.053 0 0.080 0.002h0.012c0.032 0.002 0.057 0.005 0.081 0.008l-0.009-0.001c0.367 0.040 0.694 0.212 0.933 0.468l5.903 5.9v-1.377c0-0.828 0.672-1.5 1.5-1.5s1.5 0.672 1.5 1.5v0 4.378l5.598 5.598-0.004 0.004c0.25 0.268 0.406 0.625 0.406 1.020zM29 19.5v10.5c0 0.828-0.672 1.5-1.5 1.5v0h-3v-12h-6v12h-14c-0.828 0-1.5-0.672-1.5-1.5v0-10.5l13-13zM13.5 19.5h-6v6h6z"></path>
</svg>
