<!-- Generated by IcoMoon.io -->
<svg version="1.1" xmlns="http://www.w3.org/2000/svg" width="32" height="32" viewBox="0 0 32 32">
<title>SHOPPING_CART</title>
<path d="M31.513 9.179h0.002l-4.4 9.778c-0.221 0.485-0.687 0.824-1.235 0.862l-0.005 0-12.672 0.844 0.732 2.091h13.797c1.62 0 2.933 1.313 2.933 2.933s-1.313 2.933-2.933 2.933c-1.62 0-2.933-1.313-2.933-2.933v0h-13.689c0 0.001 0 0.001 0 0.002 0 1.62-1.313 2.933-2.933 2.933s-2.933-1.313-2.933-2.933c0-1.62 1.313-2.933 2.933-2.933h2.649l-5.643-16.133h-3.36c-0.81 0-1.467-0.657-1.467-1.467s0.657-1.467 1.467-1.467v0h4.398c0.64 0 1.179 0.412 1.38 0.983h0.005l0.853 2.439h21.717c0.809 0.002 1.464 0.658 1.464 1.467 0 0.218-0.047 0.424-0.133 0.61l0.004-0.009zM9.486 10.044l2.713 7.746 12.603-0.841 3.108-6.905z"></path>
</svg>
